<svg viewBox="0 0 330 200" xmlns="http://www.w3.org/2000/svg"><g><g><g><g><g><line x1="49.07200241088867" y1="177.80999946594238" x2="44.07200241088867" y2="177.80999946594238" style="visibility: inherit;" fill="rgb(0, 0, 0)" stroke="rgb(204, 204, 204)" stroke-width="1px"></line><line x1="49.07200241088867" y1="162.99249951044717" x2="44.07200241088867" y2="162.99249951044717" style="visibility: inherit;" fill="rgb(0, 0, 0)" stroke="rgb(204, 204, 204)" stroke-width="1px"></line><line x1="49.07200241088867" y1="148.174999554952" x2="44.07200241088867" y2="148.174999554952" style="visibility: inherit;" fill="rgb(0, 0, 0)" stroke="rgb(204, 204, 204)" stroke-width="1px"></line><line x1="49.07200241088867" y1="133.3574995994568" x2="44.07200241088867" y2="133.3574995994568" style="visibility: inherit;" fill="rgb(0, 0, 0)" stroke="rgb(204, 204, 204)" stroke-width="1px"></line><line x1="49.07200241088867" y1="118.5399996439616" x2="44.07200241088867" y2="118.5399996439616" style="visibility: inherit;" fill="rgb(0, 0, 0)" stroke="rgb(204, 204, 204)" stroke-width="1px"></line><line x1="49.07200241088867" y1="103.7224996884664" x2="44.07200241088867" y2="103.7224996884664" style="visibility: inherit;" fill="rgb(0, 0, 0)" stroke="rgb(204, 204, 204)" stroke-width="1px"></line><line x1="49.07200241088867" y1="88.9049997329712" x2="44.07200241088867" y2="88.9049997329712" style="visibility: inherit;" fill="rgb(0, 0, 0)" stroke="rgb(204, 204, 204)" stroke-width="1px"></line><line x1="49.07200241088867" y1="74.08749977747601" x2="44.07200241088867" y2="74.08749977747601" style="visibility: inherit;" fill="rgb(0, 0, 0)" stroke="rgb(204, 204, 204)" stroke-width="1px"></line><line x1="49.07200241088867" y1="59.26999982198082" x2="44.07200241088867" y2="59.26999982198082" style="visibility: inherit;" fill="rgb(0, 0, 0)" stroke="rgb(204, 204, 204)" stroke-width="1px"></line><line x1="49.07200241088867" y1="44.452499866485624" x2="44.07200241088867" y2="44.452499866485624" style="visibility: inherit;" fill="rgb(0, 0, 0)" stroke="rgb(204, 204, 204)" stroke-width="1px"></line><line x1="49.07200241088867" y1="29.634999910990416" x2="44.07200241088867" y2="29.634999910990416" style="visibility: inherit;" fill="rgb(0, 0, 0)" stroke="rgb(204, 204, 204)" stroke-width="1px"></line><line x1="49.07200241088867" y1="14.817499955495208" x2="44.07200241088867" y2="14.817499955495208" style="visibility: inherit;" fill="rgb(0, 0, 0)" stroke="rgb(204, 204, 204)" stroke-width="1px"></line><line x1="49.07200241088867" y1="0" x2="44.07200241088867" y2="0" style="visibility: inherit;" fill="rgb(0, 0, 0)" stroke="rgb(204, 204, 204)" stroke-width="1px"></line></g><g transform="translate(39.07200241088867, 0)"><text style="text-anchor: end; visibility: hidden; font-family: &quot;Helvetica Neue&quot;, sans-serif; font-size: 12px; font-weight: 200;" x="0" y="177.80999946594238" dx="0em" dy="0.3em" fill="rgb(50, 49, 63)" stroke="none" stroke-width="1px">-0.1</text><text style="text-anchor: end; visibility: inherit; font-family: &quot;Helvetica Neue&quot;, sans-serif; font-size: 12px; font-weight: 200;" x="0" y="162.99249951044717" dx="0em" dy="0.3em" fill="rgb(50, 49, 63)" stroke="none" stroke-width="1px">0</text><text style="text-anchor: end; visibility: hidden; font-family: &quot;Helvetica Neue&quot;, sans-serif; font-size: 12px; font-weight: 200;" x="0" y="148.174999554952" dx="0em" dy="0.3em" fill="rgb(50, 49, 63)" stroke="none" stroke-width="1px">0.1</text><text style="text-anchor: end; visibility: inherit; font-family: &quot;Helvetica Neue&quot;, sans-serif; font-size: 12px; font-weight: 200;" x="0" y="133.3574995994568" dx="0em" dy="0.3em" fill="rgb(50, 49, 63)" stroke="none" stroke-width="1px">0.2</text><text style="text-anchor: end; visibility: hidden; font-family: &quot;Helvetica Neue&quot;, sans-serif; font-size: 12px; font-weight: 200;" x="0" y="118.5399996439616" dx="0em" dy="0.3em" fill="rgb(50, 49, 63)" stroke="none" stroke-width="1px">0.3</text><text style="text-anchor: end; visibility: inherit; font-family: &quot;Helvetica Neue&quot;, sans-serif; font-size: 12px; font-weight: 200;" x="0" y="103.7224996884664" dx="0em" dy="0.3em" fill="rgb(50, 49, 63)" stroke="none" stroke-width="1px">0.4</text><text style="text-anchor: end; visibility: hidden; font-family: &quot;Helvetica Neue&quot;, sans-serif; font-size: 12px; font-weight: 200;" x="0" y="88.9049997329712" dx="0em" dy="0.3em" fill="rgb(50, 49, 63)" stroke="none" stroke-width="1px">0.5</text><text style="text-anchor: end; visibility: inherit; font-family: &quot;Helvetica Neue&quot;, sans-serif; font-size: 12px; font-weight: 200;" x="0" y="74.08749977747601" dx="0em" dy="0.3em" fill="rgb(50, 49, 63)" stroke="none" stroke-width="1px">0.6</text><text style="text-anchor: end; visibility: hidden; font-family: &quot;Helvetica Neue&quot;, sans-serif; font-size: 12px; font-weight: 200;" x="0" y="59.26999982198082" dx="0em" dy="0.3em" fill="rgb(50, 49, 63)" stroke="none" stroke-width="1px">0.7</text><text style="text-anchor: end; visibility: inherit; font-family: &quot;Helvetica Neue&quot;, sans-serif; font-size: 12px; font-weight: 200;" x="0" y="44.452499866485624" dx="0em" dy="0.3em" fill="rgb(50, 49, 63)" stroke="none" stroke-width="1px">0.8</text><text style="text-anchor: end; visibility: hidden; font-family: &quot;Helvetica Neue&quot;, sans-serif; font-size: 12px; font-weight: 200;" x="0" y="29.634999910990416" dx="0em" dy="0.3em" fill="rgb(50, 49, 63)" stroke="none" stroke-width="1px">0.9</text><text style="text-anchor: end; visibility: inherit; font-family: &quot;Helvetica Neue&quot;, sans-serif; font-size: 12px; font-weight: 200;" x="0" y="14.817499955495208" dx="0em" dy="0.3em" fill="rgb(50, 49, 63)" stroke="none" stroke-width="1px">1</text><text style="text-anchor: end; visibility: hidden; font-family: &quot;Helvetica Neue&quot;, sans-serif; font-size: 12px; font-weight: 200;" x="0" y="0" dx="0em" dy="0.3em" fill="rgb(50, 49, 63)" stroke="none" stroke-width="1px">1.1</text></g><line x1="49.07200241088867" y1="0" x2="49.07200241088867" y2="177.80999946594238" fill="rgb(0, 0, 0)" stroke="rgb(204, 204, 204)" stroke-width="1px"></line></g></g><g transform="translate(49, 0)" clip-path="url(#clip_0)"><clipPath id="clip_0"><rect width="280" height="177"></rect></clipPath><g><g><g><line x1="0" y1="0" x2="0" y2="177.80999946594238" fill="rgb(0, 0, 0)" stroke="rgb(60, 60, 60)" stroke-width="1px" opacity="0.25"></line><line x1="23.410666465759277" y1="0" x2="23.410666465759277" y2="177.80999946594238" fill="rgb(0, 0, 0)" stroke="rgb(60, 60, 60)" stroke-width="1px" opacity="0.25"></line><line x1="46.821332931518555" y1="0" x2="46.821332931518555" y2="177.80999946594238" fill="rgb(0, 0, 0)" stroke="rgb(60, 60, 60)" stroke-width="1px" opacity="0.25"></line><line x1="70.23199939727783" y1="0" x2="70.23199939727783" y2="177.80999946594238" fill="rgb(0, 0, 0)" stroke="rgb(60, 60, 60)" stroke-width="1px" opacity="0.25"></line><line x1="93.64266586303711" y1="0" x2="93.64266586303711" y2="177.80999946594238" fill="rgb(0, 0, 0)" stroke="rgb(60, 60, 60)" stroke-width="1px" opacity="0.25"></line><line x1="117.05333232879639" y1="0" x2="117.05333232879639" y2="177.80999946594238" fill="rgb(0, 0, 0)" stroke="rgb(60, 60, 60)" stroke-width="1px" opacity="0.25"></line><line x1="140.46399879455566" y1="0" x2="140.46399879455566" y2="177.80999946594238" fill="rgb(0, 0, 0)" stroke="rgb(60, 60, 60)" stroke-width="1px" opacity="0.25"></line><line x1="163.87466526031494" y1="0" x2="163.87466526031494" y2="177.80999946594238" fill="rgb(0, 0, 0)" stroke="rgb(60, 60, 60)" stroke-width="1px" opacity="0.25"></line><line x1="187.28533172607422" y1="0" x2="187.28533172607422" y2="177.80999946594238" fill="rgb(0, 0, 0)" stroke="rgb(60, 60, 60)" stroke-width="1px" opacity="0.25"></line><line x1="210.6959981918335" y1="0" x2="210.6959981918335" y2="177.80999946594238" fill="rgb(0, 0, 0)" stroke="rgb(60, 60, 60)" stroke-width="1px" opacity="0.25"></line><line x1="234.10666465759277" y1="0" x2="234.10666465759277" y2="177.80999946594238" fill="rgb(0, 0, 0)" stroke="rgb(60, 60, 60)" stroke-width="1px" opacity="0.25"></line><line x1="257.51733112335205" y1="0" x2="257.51733112335205" y2="177.80999946594238" fill="rgb(0, 0, 0)" stroke="rgb(60, 60, 60)" stroke-width="1px" opacity="0.25"></line><line x1="280.9279975891113" y1="0" x2="280.9279975891113" y2="177.80999946594238" fill="rgb(0, 0, 0)" stroke="rgb(60, 60, 60)" stroke-width="1px" opacity="0.25"></line></g><g><line x1="0" y1="177.80999946594238" x2="280.9279975891113" y2="177.80999946594238" fill="rgb(0, 0, 0)" stroke="rgb(60, 60, 60)" stroke-width="1px" opacity="0.25"></line><line x1="0" y1="162.99249951044717" x2="280.9279975891113" y2="162.99249951044717" fill="rgb(0, 0, 0)" stroke="rgb(60, 60, 60)" stroke-width="1px" opacity="0.25"></line><line x1="0" y1="148.174999554952" x2="280.9279975891113" y2="148.174999554952" fill="rgb(0, 0, 0)" stroke="rgb(60, 60, 60)" stroke-width="1px" opacity="0.25"></line><line x1="0" y1="133.3574995994568" x2="280.9279975891113" y2="133.3574995994568" fill="rgb(0, 0, 0)" stroke="rgb(60, 60, 60)" stroke-width="1px" opacity="0.25"></line><line x1="0" y1="118.5399996439616" x2="280.9279975891113" y2="118.5399996439616" fill="rgb(0, 0, 0)" stroke="rgb(60, 60, 60)" stroke-width="1px" opacity="0.25"></line><line x1="0" y1="103.7224996884664" x2="280.9279975891113" y2="103.7224996884664" fill="rgb(0, 0, 0)" stroke="rgb(60, 60, 60)" stroke-width="1px" opacity="0.25"></line><line x1="0" y1="88.9049997329712" x2="280.9279975891113" y2="88.9049997329712" fill="rgb(0, 0, 0)" stroke="rgb(60, 60, 60)" stroke-width="1px" opacity="0.25"></line><line x1="0" y1="74.08749977747601" x2="280.9279975891113" y2="74.08749977747601" fill="rgb(0, 0, 0)" stroke="rgb(60, 60, 60)" stroke-width="1px" opacity="0.25"></line><line x1="0" y1="59.26999982198082" x2="280.9279975891113" y2="59.26999982198082" fill="rgb(0, 0, 0)" stroke="rgb(60, 60, 60)" stroke-width="1px" opacity="0.25"></line><line x1="0" y1="44.452499866485624" x2="280.9279975891113" y2="44.452499866485624" fill="rgb(0, 0, 0)" stroke="rgb(60, 60, 60)" stroke-width="1px" opacity="0.25"></line><line x1="0" y1="29.634999910990416" x2="280.9279975891113" y2="29.634999910990416" fill="rgb(0, 0, 0)" stroke="rgb(60, 60, 60)" stroke-width="1px" opacity="0.25"></line><line x1="0" y1="14.817499955495208" x2="280.9279975891113" y2="14.817499955495208" fill="rgb(0, 0, 0)" stroke="rgb(60, 60, 60)" stroke-width="1px" opacity="0.25"></line><line x1="0" y1="0" x2="280.9279975891113" y2="0" fill="rgb(0, 0, 0)" stroke="rgb(60, 60, 60)" stroke-width="1px" opacity="0.25"></line></g></g></g><g><g><line x1="0" y1="162.99249951044717" x2="280.9279975891113" y2="162.99249951044717" fill="rgb(0, 0, 0)" stroke="rgb(153, 153, 153)" stroke-width="1.5px"></line></g></g><g><g><line x1="23.410666465759277" y1="0" x2="23.410666465759277" y2="177.80999946594238" fill="rgb(0, 0, 0)" stroke="rgb(153, 153, 153)" stroke-width="1.5px"></line></g></g><g><g><g><g><g><path style="fill: none;" stroke="rgb(255, 112, 67)" stroke-width="2px" d="M23.508991264915466,8.552932047784964L23.630726730537415,8.939196998370022L23.801624595737454,9.411267801461634L23.946770727825164,9.466950906848865L23.958476061058047,9.609757943357607L24.049777660274504,9.730069661728038L24.136397126197817,9.71577982780343L24.15512565937042,9.85234470577268L24.520332056236267,9.972559739023296L24.665478188323977,10.312935900337521L24.76614405412674,10.469008327321802L24.78253152065277,10.576716095609157L24.894902719688414,10.32131605984165L24.925336586093902,10.374375231994577L25.08218805141449,10.41676265858598L25.302248316192628,10.623003851694563L25.784508045387266,11.072047698477206L25.906243511009215,11.186950509056828L26.531308305644988,11.724027526512089L26.540672572231294,11.887697407534318L26.653043771266937,11.911250245095232L26.669431237792967,12.227634144295308L26.772438170242307,12.230964220638697L27.36941016511917,12.560422374419971L27.470076030921938,13.020458420574414L27.47709923086166,12.87483829854412L27.804848561382293,12.44611565933755L27.89849122724533,12.760161069332923L28.177078158187868,12.934225154590138L28.317542156982423,13.245108395182143L28.558672021579742,13.592471418144044L28.706159220314028,13.783358382155313L28.811507219409943,13.491244832169173L29.003474684429168,13.787216617056231L29.113504816818235,13.371996807341361L29.22821708250046,14.311029139541489L29.230558149147036,14.487552009955067L29.258650948905945,15.044796042833525L29.338247214889527,15.56236387959106L29.696430411815644,14.96255967554805L29.82518907737732,14.343984124215979L30.522826938056944,14.742525624951043L30.972311734199526,15.709234078619858L31.009768800544737,16.838021709220413L31.14789173269272,17.169808106123213L31.880645593070984,17.670816577162753L31.885327726364135,17.885160796764865L32.00238105869293,17.712503289085618L32.16859679059982,17.87103967774462L32.33949465579987,18.450216262239366L32.355882122325895,18.872540521809327L32.606376253509524,18.540283855530276L32.671926119613644,18.42391137018592L32.85921145133972,18.33541727668802L33.23378211479187,18.803535201690522L33.51705117902756,19.43113888342421L33.71135971069336,19.26213012873785L33.92673784217834,20.08629811304135L33.96653597517014,20.146133247759224L34.35749410514832,20.608667723404494L34.61969356956482,20.44008320913622L35.048108765888216,19.590318946748084L35.364152763175966,20.431225255112878L35.42970262928009,21.209866171021957L35.92366769170761,21.76919626363096L35.956442624759674,22.494108576528674L36.4012452876091,23.637079735492136L36.70558395166397,21.574545536909824L36.808590884113315,19.792697224086737L37.00758154907227,20.153334737000108L37.13868128128052,21.53353905686251L37.15506874780655,21.5807327817449L37.23934714708328,22.01864238775275L37.43365567874908,21.8110282101527L37.92527967453003,23.738041894281054L37.96975994081497,23.90523241768463L38.13363460607529,24.4687707435603L38.80083860034943,24.352881244531858L38.86872953310013,23.79625835865562L39.093471931171415,24.127510614695012L39.12156473093033,24.781023507171227L39.456337261390686,24.92925018736483L39.71853672580719,24.54327577604809L40.16099832201004,24.650868905841975L40.69242045078278,25.202046744927003L40.8750236492157,25.21818725659125L40.88204684915542,25.491499249344002L40.99441804819107,26.346030583244982L41.6428935092926,28.088564511765895L41.66630417575836,27.981754813783084L41.748241508388524,26.57701266748151L42.11813003854752,26.69250476615474L42.29371003704071,26.855435248659433L42.56059163475037,27.479060586724188L42.65657536725998,28.612031475037384L42.98900683107376,27.95529742642131L43.021781764125826,26.33713388645731L43.305050828361516,27.51144755904386L43.32846149482727,28.40630606764097L43.54618069295883,27.966231454973922L44.19465615406036,28.9370413213569L44.31170948638916,29.642222455305813L44.32809695291519,29.476152738488054L44.463878818416596,30.02104998790074L45.08894361305237,30.424135201278432L45.57588547554016,30.540328156627538L45.777217207145696,30.916520847828394L45.80765107355118,30.358627540408207L46.114330804252624,32.37736163004246L46.45378546800613,32.75037487271254L46.60361373338699,31.701735727671036L47.46746732597351,30.48849212213821L47.48385479249954,28.404227078312346L47.75541852350236,30.207773208890956L47.94270385522842,32.02028777365919L48.04336972103119,31.99889073517525L48.24236038599014,32.296686639335434L48.59352038297653,30.862686286275277L48.647364915847774,29.444242163202716L48.93297504673004,31.857796823965685L48.93999824666977,33.04996963817089L49.0828033121109,33.74548871029987L49.10153184528351,34.70906723352121L49.209220911026,35.36652802336101L49.401188376045226,34.83787099235383L50.143306503009796,34.043300462997394L50.26738303527832,35.04045076040964L50.40784703407287,34.69447437398006L50.487443300056455,33.70326294884856L50.76603023099899,35.7790184217435L50.939269162845605,36.78353771003603L51.43089315862655,37.622840677474215L51.44259849185944,37.32379852034268L51.88740115470886,36.12817727437803L52.182375552177426,34.895579748252175L53.07432194452286,34.128447241725894L53.556581673717496,35.49231344523889L53.70172780580521,37.82353904642346L53.92412913722992,38.24050979230219L53.987337936687474,35.04258243552201L54.09970913572311,35.122815864811884L54.78564166316986,34.21230864811699L55.1227552602768,35.52635025755984L55.24214965925216,36.40565399940138L55.295994192123416,34.35754467460569L55.740796854972835,35.01914411666374L55.91403578681946,37.60950160864374L56.372884849548335,38.17097760161792L56.702975246715546,38.367486988317495L56.873873111915586,37.82289190845768L56.97688004436493,37.12475670171469L57.2320563088417,35.54377691006903L57.67920003833771,34.679548207779476L57.74943203773499,33.57881341158617L57.793912304019926,36.361536880882966L58.00929043550491,36.69822105017445L58.07952243490219,36.71654488691169L58.22935070028305,35.416536302670465L58.27383096656799,35.45421899675327L59.28517175788879,37.40345599064082L59.63399068822861,39.43858858830336L59.63867282152176,38.34630432715491L59.71358695421218,40.69859612505334L60.259055482864376,41.78938955666541L60.3152410823822,41.74371647792569L61.13929654197693,40.565152249753424L61.45065840597153,43.82004483545077L61.61921520452499,41.58143043881665L62.49945626363755,42.7180578981955L62.761655728054045,43.99117650586268L62.87402692708969,45.51457797938505L62.972351726245876,47.7805001376278L63.36330985622406,45.82988802610117L63.435882922267915,42.164726333150696L63.892390918350216,43.17615329882295L63.95091758451461,44.68453324324693L64.00242105073929,47.621518299648955L64.47999864664078,44.124249781091834L64.51277357969283,43.570255679059755L64.58066451244355,45.87589948664771L64.59939304561614,46.53489633600884L65.70203543615341,49.6815987430746L66.60568716173172,49.58217011879023L67.79260795154572,46.864118993495L68.16249648170471,47.83671585137455L68.28657301397324,49.489106335868655L68.52536181192399,46.509755966303885L69.13403914003372,47.559326509809495L69.3892154045105,49.306765775777734L69.42199033756256,48.78683830128301L69.60225246934891,48.790259754449465L69.87147513370515,48.77259264947941L70.08685326519013,49.5618958460889L70.22029406404495,49.29716632787438L70.313936729908,49.75077398698673L70.35607592954636,49.87299112799222L70.37714552936554,49.21312896107966L70.5550665945053,48.726613753046166L70.80321965904236,50.100236052727496L70.82194819221496,47.29745995373048L70.98816392412185,47.954573994050264L71.26206872177124,48.72237648532712L71.49383431978225,48.03112840915264L71.49617538642883,48.653706008722224L71.5476788526535,47.9710427085389L71.58513591899873,47.22477346290586L72.05569031496049,50.71876591233449L72.06271351490021,53.54044886057986L72.17742578058244,53.60862048050346L72.23361138010024,53.78633922170147L72.76035137557983,54.79172222261545L72.91017964096069,51.63034740143085L73.06234897298813,55.941139609594316L73.11619350585937,56.788084509013714L73.31986630411149,57.68518715054745L73.48842310266495,58.73889231733759L73.79744390001296,55.81367907998876L74.55829056015016,53.188787979612144L74.92817909030914,54.85132429828289L75.48769401884078,55.13496636773118L75.59772415122985,55.92967127686984L75.68668468379975,52.48658658255849L75.75223454990387,53.43527225466315L76.01911614761353,52.793328617579135L76.88062867355347,51.64046905087825L77.5782665342331,52.72064313201348L77.60167720069886,51.98229703808781L77.70468413314819,49.247206355863426L77.76555186595917,51.34559216518625L77.87089986505508,55.1799134188055L77.92474439792633,54.73419291428678L78.10032439641954,55.91655035070127L78.25483479509354,56.22089667977012L78.51937532615662,55.45733264388781L78.82371399021149,55.43455062835696L78.84946572332382,53.9703895132304L78.89628705625533,52.81365996688305L79.45111985149383,50.953452050289116L79.78121024866104,51.92825676493453L79.9404027806282,52.713740707387615L80.25644677791595,53.09658524807939L80.26112891120911,52.004042733932764L80.35008944377898,51.8862849397276L80.40393397665024,51.028668940275296L81.05006837110518,51.7914845201488L81.27949290246964,54.968768422249255L81.29822143564223,57.883938466144755L81.70556703214645,56.944342274511826L81.78282223148346,57.957594110817226L81.95606116333008,57.021404908343655L82.04736276254653,55.944864920008314L82.24869449415208,56.2276932243296L82.52962249174118,55.47879576050714L82.71456675682067,55.68611515684006L82.85268968896865,58.03647068174203L83.54330434970856,60.71572523995292L83.83827874717713,59.49608307828595L83.92021607980729,59.80755422168926L84.0934550116539,59.78723414654965L84.4329096754074,57.30376089261672L84.49143634157181,55.557630739553446L84.64126460695267,58.77848252544135L84.67403954000473,58.679190324220215L84.9877424706459,60.937911801723516L85.2218491353035,63.65985721773272L85.37870060062409,64.55220661282009L86.1442293940544,63.69463781522937L86.14657046070099,65.85525027203431L86.21914352674484,65.76742553527497L86.95189738712311,64.06624244414584L86.97999018688202,63.240322676841245L86.98935445346832,65.19993747419774L86.99169552011489,67.92361520380399L87.26091818447112,65.56757922888585L87.80170457983017,64.53053914959453L88.03112911119462,64.67907208083633L88.07092724418641,66.80784435276323L88.11306644382476,65.74022515608141L88.55084590673447,64.04526117201411L88.76388297157288,65.41370139506306L88.84347923755645,64.23307663889105L88.88561843719482,63.880064820480584L89.71201496343613,60.39159201372877L89.98591976108551,62.72751154992325L90.016353627491,64.8797862838714L90.23173175897598,64.09828320408857L90.29962269172668,63.277866075839L90.39092429094315,65.0886882394593L91.2313672170639,65.64668109435064L91.29223494987488,59.715119053099144L91.38821868238449,60.722563570127875L91.44674534854889,60.86377016498544L91.77215361242294,59.80573548398257L91.91729974451064,60.12900268713105L92.40424160699845,60.22209259120174L92.44169867334367,60.040493348260696L92.61493760519028,63.201968204763276L92.73199093751907,63.47159822896454L93.0503760014534,64.76729843105748L93.24234346647263,64.98026165306352L93.65437119626998,64.79353664499938L93.71523892908097,63.535993022793704L93.85804399452209,65.17204064004335L94.05001145954132,62.53082194978943L94.21154505815505,70.44047673061655L94.30752879066468,69.69337185020251L94.40819465646744,71.72187100917047L94.71721545381546,67.57083086000708L94.7429671869278,67.73390742253645L95.07539865074158,67.70406575916004L95.29545891551972,67.48151796483145L95.32823384857177,66.15000815396124L96.93420556812288,69.13363832766319L97.02082503404617,68.88477404889247L97.61311489562988,70.69744108071086L97.87531436004639,70.89117482731052L98.02748369207382,73.07079209017537L98.04387115859984,74.7611797896013L98.1749708908081,72.94085269670667L98.19604049062728,72.73360211800097L98.33416342277526,69.94288420257165L98.36459728918076,74.28311182384115L98.73214475269317,73.78395679405796L98.80939995203019,72.59301238347872L99.3431631474495,69.3844430718295L99.59365727863312,70.26221248219387L99.86287994298935,72.30137860862008L99.97759220867157,69.51899005845256L100.10869194087982,69.32990806281454L100.41771273822785,63.055458014552926L100.43644127140044,62.35667268901689L100.74546206874847,64.05909333627378L101.02170793304442,62.93804134933552L101.08491673250198,64.87166837906214L101.08959886579514,62.6676090057983L101.30029486398696,61.25297439472992L101.46416952924729,62.94597704061681L101.54376579523087,63.78322331458361L101.609315661335,62.392847803899386L102.37016232147216,62.954581292173515L102.39123192129135,63.09527021434245L102.41932472105026,62.905587760456996L102.46380498733521,61.22759116425128L102.503603120327,63.27350783685162L102.6300207192421,65.14727524332226L102.658113519001,65.75824310590141L102.7166401851654,66.20903645796959L102.80325965108871,68.89094561096483L103.04673058233261,70.5694554588436L103.09121084861755,70.45740691861772L103.33702284650803,73.85982650217686L103.8543985754013,73.6259239828841L103.9035609749794,71.08748973741051L104.03231964054108,73.00108154468222L104.23599243879318,71.1708422159991L104.4092313706398,72.477442795773L104.83998763360977,69.90134655560433L106.12757428922654,71.32100345178863L106.17673668880462,73.91412209817523L106.19546522197723,73.34548781908266L106.23058122167586,71.97940948170562L106.47873428621293,72.62234960615497L106.68943028440475,70.95936473989082L107.1529614804268,69.5431600457662L107.16934894695282,69.51875641913082L107.33556467885971,68.31972834414445L107.57903561010362,73.60640523050293L107.6188337430954,75.02264523773427L107.77568520841598,74.48757851405334L108.26496813755035,76.77696432456435L108.33285907030105,70.56229953355283L109.16159666318893,71.6326912339252L109.23182866258621,70.42666067410109L109.27630892887116,66.94092952472037L109.4846638604164,66.26497978513346L109.60639932603836,64.9344979578208L109.67897239208222,68.09296789447424L109.81241319093705,68.75788157666031L110.42577265233994,71.82657803697771L110.50302785167693,74.30269152844312L111.09531771326066,72.47491797627727L111.17491397924422,73.84211272910495L111.81870730705262,69.25958599027712L112.08090677146912,72.02460484936401L112.82068383178711,74.97051240686048L112.94944249734878,72.11689543711738L113.39892729349137,68.89608195674917L113.43638435983658,71.73699697505461L113.46213609294891,75.22485808698497L113.87416382274627,81.56670625735823L114.00994568824768,81.10403457054593L114.05676702117921,79.61677411674837L114.3376950187683,75.16736867657451L114.66778541593551,72.98445859108L114.72397101545333,78.5751858011405L115.04235607938766,76.10747246253541L115.26709847745896,76.05258490603293L115.40522140960694,74.60689747881885L115.43097314271927,76.19224649402926L116.35569446811677,77.6217580195084L116.42124433422089,78.35066351097261L116.54063873319626,79.3631813232968L116.76772219791413,74.97265801922484L116.84029526395797,73.61785606413926L116.85200059719085,72.93022824497952L117.1001536617279,74.65179669497056L117.74628805618286,71.17107498475846L118.22386565208436,72.74344419766966L118.568002449131,68.11293910679328L118.60545951547623,69.8869884862357L118.61482378206253,65.75252500007947L118.69207898139953,68.02731036809253L118.73890031433106,71.11425193363428L118.9097981795311,73.60589465051143L119.48804164123536,72.02633862555147L119.69405550613403,72.85322712819584L119.96561923713683,70.31222930109965L120.02882803659439,67.70196756328401L120.19270270185471,70.29008196378595L120.35189523382186,67.93718384563347L120.5438626988411,70.97743459572222L120.65623389787673,74.49447566536452L120.69369096422194,76.7846612171798L121.43346802453995,73.3505542833273L121.76589948835372,76.7776150299191L122.04916855258942,74.84296630229909L122.30668588371277,75.8013255728596L122.52908721513748,73.0147400773433L122.78894561290741,75.6185487821168L122.83108481254577,73.7037419785122L123.32270880832672,72.83697235437894L123.99225386924743,71.68544074523278L124.03205200223923,70.99125107797765L124.12335360145569,76.29919062705764L124.72734879627228,76.45842590264716L125.2892047914505,77.22206677794986L125.37114212408065,79.82133420405167L125.49755972299576,74.91229283343958L125.57247385568618,76.90825677229533L125.74103065423965,79.16424669568778L125.80423945369719,78.83721912281187L125.81360372028351,78.90548725129393L125.96109091901779,74.20599475542684L126.37077758216857,75.43583458620452L126.40121144857407,75.30516140695248L126.58849678030015,77.32908384093386L126.59786104688644,77.18523937003219L126.68213944616318,73.50317948133181L126.88581224441528,74.4345098079513L126.90219971094132,75.30439364800465L127.00520664339065,72.67293248515658L127.12928317565918,74.55311068054824L127.78712290334701,80.0385157117599L127.92758690214157,81.24227418984114L128.29513436565398,79.38003968723469L128.32790929870606,82.69014083082264L128.67438716239928,80.54440782227435L129.00213649291993,80.61827222309448L129.48439622211455,77.33553946524034L129.50546582193374,76.69084168766557L129.62954235420227,79.51942076489715L129.94558635149002,77.79855347824683L130.02986475076676,78.62321345420979L130.29908741512298,78.29496109372931L130.72282047815324,76.80104237343339L131.17698740758894,75.41546013377067L131.3104282064438,72.12288082651327L131.4953724715233,75.19672043197201L131.5796508708,73.25735441569168L131.8441914018631,73.86826619825419L131.8816484682083,79.42539893119567L132.06659273328782,80.1697671471368L132.26792446489333,81.62580700318469L133.90433005084992,84.08114474485164L134.00499591665266,79.40780790105856L134.14545991544722,80.26310471442497L134.19228124837875,80.14297730079453L134.46384497938158,77.56760645191673L134.5855804450035,79.22119728866807L134.72604444379806,80.81417632844415L134.8103228430748,81.59544330443963L134.93439937534333,82.3641251824203L134.97419750833512,86.3134333203774L135.00697244138718,86.61046303034097L135.063158040905,89.0226262656247L135.09125084066392,86.6934458217148L135.18255243988037,89.16901731436914L135.21532737293242,84.16264261105842L135.50561963710786,78.52096147177073L135.65778896913528,77.96415383338166L135.71163350200652,80.77050453828669L135.95978656654358,75.7044043105689L136.20559856443404,74.1167297758907L136.31328763017655,74.2583708580074L137.00390229091644,79.99206210883855L137.7577257511139,82.3963832641464L138.08079294834135,77.67965205994429L138.75970227584838,77.22573926802019L138.8861198747635,74.85668451424554L138.9446465409279,79.11676161972136L139.23962093839646,80.3195720941116L139.42924733676912,82.60524310346653L139.57205240221023,86.25817977511285L139.61653266849518,81.63817341063258L140.4780451944351,82.09516294436762L140.5950985267639,87.1357401773318L140.8128177248955,83.61863544524655L140.8502747912407,84.49303926462501L140.92050679063797,82.80479275981114L141.091404655838,82.51266837820957L141.35828625354767,87.09824986241541L141.93652971525194,83.17750678099583L141.9412118485451,83.56825107560397L142.38133237810135,83.42081548275026L142.75590304155352,80.07828681986499L143.11876837177275,80.66041257567315L143.33648756990434,85.08305885522097L143.46524623546603,84.66838894012608L143.60571023426056,83.39335436494092L144.56086542606351,81.68018966450978L144.67323662509918,80.14876959456302L144.69196515827178,77.35207524886158L145.038443021965,79.52620292370325L145.1484731543541,82.84484815464054L145.30298355302813,82.89929758072044L145.700964882946,80.75600124492951L145.8297235485077,82.86433408870293L145.9725286139488,77.91015025596894L146.0521248799324,78.01653322295554L146.34007607746125,72.11220323536303L146.38221527709962,70.53156294046194L146.7427395406723,76.14055742789817L147.0236675382614,76.29775483218835L147.2671384695053,75.75742930853941L147.34439366884232,74.00116352593307L147.49422193422316,77.48517924976642L147.51763260068893,79.17253874858696L147.70257686576844,72.80672246674483L147.73769286546707,70.9546717561201L148.4259664595604,75.51209624590896L148.44469499273302,80.39678215654054L148.582817924881,77.30321317211786L148.61559285793305,75.91429683429168L149.13999178676607,73.49185366305389L149.15637925329207,75.02945758485383L149.1657435198784,75.59501024062587L149.17510778646468,82.44074137174825L149.5051981836319,80.15742714578609L149.5824533829689,80.52837193638807L149.60820511608122,83.69150231691827L149.99682217941285,81.96114389150856L150.03193817911148,82.17029016218652L150.0811005786896,82.86631483179987L150.11621657838822,79.51859886088417L150.39246244268418,80.9105701287005L150.91920243816375,81.71675946548676L151.29143203496935,78.69838861822336L151.342935501194,77.28970274210823L151.44594243364332,80.27383929016096L151.5114922997475,79.90885577396158L151.71750616464615,78.09590074013256L152.021844828701,76.60587031829475L152.12719282779693,70.6058817441406L152.62115789022445,75.54368888476431L152.8693109547615,80.04439991388054L152.87633415470123,81.85675266088663L152.9372018875122,84.79018324322898L153.00977495355608,84.76086772980405L153.42882588329317,87.06410313774559L153.440531216526,81.97629110468085L153.45925974969862,79.55666909925576L153.83851254644395,74.71524418160773L153.96258907871248,78.88205960701545L154.43080240802763,81.23209290295817L154.72343573884964,81.92602712620635L155.2220829345703,80.92790420490864L155.29933813390733,80.748648743058L155.3976629330635,80.4137755137937L155.52173946533202,78.23910368376518L155.6973194638252,78.10751063702428L155.73009439687726,77.83727550484258L155.74648186340332,78.62127238795446L155.9337671951294,77.91765522833003L156.3528181248665,81.9052773991827L156.43007332420348,85.38610499443013L156.84912425394057,83.43872828743407L157.55144424791337,83.70743310247623L157.5654906477928,79.46325557171096L157.9845415775299,78.72578683434212L158.63067597198486,77.5062494086553L159.883146627903,78.79684347197187L160.00254102687836,80.25415846902679L160.2226012916565,81.28761617543935L160.4941650226593,77.44611833894986L160.622923688221,78.38922795898101L160.69315568761826,78.0928658459995L160.8757588860512,73.61712042508428L160.93896768550871,74.55002123957794L160.97876581850053,74.80218666111837L161.03729248466493,79.48812920100676L161.56637354679108,78.54460961478549L161.6038306131363,78.69571219999841L161.61787701301574,75.32177598606243L162.15164020843508,79.74036639796802L162.2616703408241,82.34167823997369L162.5449394050598,85.51423943419368L162.9944242012024,84.76393045329914L163.03188126754762,89.18394097160427L163.10211326694488,90.87800257011902L163.25896473226547,89.14721668203978L163.29173966531752,89.08368029876868L164.07599699192045,90.1692656727149L164.29371619005204,88.66409074652944L164.30776258993149,91.86936662115775L164.35926605615617,91.2020040643486L164.569962054348,92.62504580458459L164.9866719174385,89.32773661876817L165.05222178354262,82.75460566327962L165.2699409816742,81.97067020256087L165.4455209801674,80.47703352718305L166.50134203777313,80.5448873012455L166.69565056943893,82.11001447957464L166.86186630134583,81.41277240959367L167.0889497660637,83.4394245979781L167.1170425658226,81.05109319000033L167.24111909809113,85.24081112300527L167.4658614961624,85.73288349298676L167.80765722656253,81.16100524040753L168.88220681734086,82.25772227963357L169.06949214906695,83.90649908661281L169.76478894309997,86.61641418142834L169.83736200914382,82.26953446107544L169.85609054231642,81.288539178958L170.60289080257414,81.89448216534768L170.95405079956055,83.19986629140192L171.4128998622894,83.1225764236199L171.7359670595169,81.21692105222996L171.89984172477722,80.06728731079984L171.90218279142383,81.67056263583899L172.09883238973617,83.69133422415935L172.4687209198952,85.11884695086758L172.72623825101851,85.35476253231391L172.9228878493309,85.96868216578518L173.21083904685975,87.4835685689882L173.4683563779831,83.3403327850374L173.6439363764763,84.37938390831879L173.76567184209824,83.49250197294118L174.43521690301893,80.36656972171733L174.45862756948472,79.03341615115224L174.46330970277788,80.16264478944751L174.8472446328163,78.75056067226598L175.32014009542468,81.01111325277968L175.55424676008224,79.35093151736457L175.57999849319458,79.92234177666221L175.70641609210966,81.73642127511314L176.1535598216057,81.72937385141798L176.22145075435637,79.44305848092017L176.26358995399474,75.41247876155005L176.45789848566056,83.28576779556761L176.63347848415376,81.149828799874L176.7060515501976,80.6813414357366L176.8137406159401,78.70904564549652L176.9869795477867,78.67093601790411L177.0853043469429,79.67034954138926L177.2398147456169,83.37500063136758L177.70334594163896,85.2102680773583L177.79932967414857,81.7707374712948L178.03577740545273,82.58858045675318L178.61870300045015,83.93036495544487L179.17119472904207,82.53305470030536L179.43573526010513,85.47917033022588L179.76348459062575,88.88036812029657L180.14039632072448,86.95165288512462L180.2059461868286,83.69741190090868L180.3112941859245,82.78040914074383L181.29220111083984,86.8715635555041L181.37179737682342,93.87819487878791L181.46309897603987,89.3778857347013L183.2188989609718,87.829099979083L183.22124002761842,88.75432612761726L183.2610381606102,85.83275765398811L183.48812162532806,87.89224308979377L183.60751602430344,85.16602665400161L183.80182455596923,80.76501653945827L183.98442775440216,81.17792954220967L184.7780493475914,83.63466883658944L184.91617227973938,79.34726280329807L185.34458747606277,79.47105273900688L185.34692854270932,78.76769381971746L185.37736240911482,85.453193032668L185.70745280628205,85.95674505263429L185.82450613861084,84.42902921795297L186.00945040369032,86.58689373891929L186.05861280326843,84.41463414396564L186.49405119953158,84.56307868643997L186.5572599989891,88.11144068784415L186.6274919983864,86.28921233429688L186.81243626346588,82.48961022189297L187.08634106111526,86.31310460849052L188.357540250206,87.1524753494601L188.3669045167923,87.82262995889747L188.43947758283616,85.59866716185566L188.52375598211287,84.12253356985855L188.64315038108825,86.38741448844746L188.82107144622805,84.48418751810738L189.42740770769117,85.1385589093568L189.61703410606387,83.66370197766855L190.26316850051882,85.16766699047774L190.36149329967498,85.34867620965036L190.62837489738465,81.50571303667554L190.9233492948532,81.01049700172547L190.98421702766416,83.22589799142564L191.255780758667,84.51851328329433L191.6163050222397,86.85666098084003L191.74740475444793,95.23581741876899L191.8667991534233,93.35052732215091L191.91830261964796,90.58714991525461L191.995557818985,91.00641636037719L192.0540844851494,89.64918453324672L192.42865514860154,93.47657356631424L192.61125834703446,86.95559046187869L192.66042074661254,91.06336976315795L192.66276181325912,94.27871352872359L192.66744394655228,95.57116275786065L192.90623274450303,91.37427254501682L192.91325594444274,89.34095886163136L193.0068986103058,84.99297572986757L193.27378020801544,83.49584541887924L193.66005620470045,85.95152401774203L194.01121620168686,87.15430461841555L194.18679620018005,85.55047477182015L194.3296012656212,83.67485648347184L194.72758259553908,83.4028185147955L195.05299085941314,83.41423062951314L196.0596495174408,81.75419122368893L196.1556332499504,84.31893066077204L196.1673385831833,86.21595719873095L196.27736871557238,84.95878601686738L196.4178327143669,87.97200805977769L196.47167724723818,92.48788959759678L196.67535004549026,92.77173976361061L197.08737777528762,88.8573653714715L197.10376524181365,88.04663684210534L198.6746209616661,89.66388976690769L198.75889936094282,87.63656298059327L199.3184142894745,90.98652339135035L199.39098735551835,94.78546371359829L200.08862521619795,90.91530481827726L200.13076441583632,92.85964994309515L200.3180497475624,88.62054620385176L200.4631958796501,87.76030733279934L200.6223884116173,87.15732359247238L201.16317480697631,92.42979971211454L201.16785694026944,89.09010304352462L201.46283133773804,89.36216720422448L201.5634972035408,90.31143749962514L201.84208413448334,89.07524557532487L202.34073133020402,87.34230715222435L202.4601257291794,87.93417687302379L202.7972393262863,85.86838552538602L202.9072694586754,87.85663629457478L202.9821835913658,89.96197005300498L203.18117425632477,91.2773291291735L203.45273798732757,93.48476505032416L203.46912545385362,88.52191877160608L203.49487718696597,87.71387090432448L203.84369611730574,86.66973985901618L204.13632944812775,85.89891974887944L204.43130384559632,83.47618831706171L204.74968890953065,79.71718340304723L204.91356357479097,81.52360228215876L205.17810410585403,85.90011733228918L205.5503337026596,84.70230692715177L205.7820993006706,89.58573081103565L206.2315840968132,88.43367627455987L206.3299088959694,87.98401481035505L206.50080676116943,86.46952861589472L206.63424756002425,85.90954584353403L207.82819154977798,81.75845868779152L207.98738408174515,82.55511212234275L208.1676462135315,82.87924388752819L208.20042114658355,82.29120874156118L208.29172274580003,80.69820495989684L208.36663687849045,80.13860063056913L208.62649527626039,76.21840807048092L209.07832113904954,81.92406665091858L209.23985473766328,79.7815003598681L209.3334974035263,80.84685704597301L209.7525483332634,81.43094978548774L209.80639286613464,79.1396775868866L209.9843139312744,81.70513794178962L210.25587766227721,77.88125839319352L210.3144043284416,77.83897634019493L210.62108405914307,85.15170127544347L210.6374715256691,87.07719600537969L210.69131605854034,88.26050955164423L210.76857125787737,90.42408351518664L210.77793552446366,93.44973727725129L210.93010485649108,91.26192235800073L211.08227418851854,94.19915869863958L211.51771258478163,92.97713070005426L211.6090141839981,90.26230104060534L211.64647125034332,87.4446344205149L211.98358484745026,91.02616805193382L212.04445258026124,92.93461602766168L212.13107204618456,92.9459971005261L212.6297192419052,95.66866429139603L212.72102084112169,96.1891523109767L212.72570297441484,95.58174776680679L212.91064723949432,97.93496404946656L213.02770057182312,96.94641713329379L213.07218083810807,94.7482429997931L213.31096963605881,94.42586673870694L213.92901123075487,95.16531034416947L214.19355176181793,95.52611035383472L214.2754890944481,91.22541079122247L215.2657602859497,91.35621903126118L215.56541681671143,86.82239639200539L215.96339814662934,86.76600709402935L216.3871312096596,88.06764544175596L216.5182309418678,91.87147397569139L216.6095325410843,96.59486749125173L216.89514267196657,91.22874260514985L216.99112640447618,88.72539999854813L217.10115653686523,91.0043071329481L217.18075280284882,88.7155540110175L217.32355786828995,90.30507986688099L217.36569706792832,86.84659931293209L217.54127706642151,87.95219685990818L217.89477813005448,90.48594199994658L218.0165135956764,94.45442089129529L218.34426292619708,94.047326076288L218.913142121315,90.41400680121325L219.50309091625212,91.0020069494961L219.88000264635087,87.96119549539749L219.99237384538648,83.61440580082197L220.44654077482224,88.4025719432609L220.52145490751266,82.54046899715932L220.54018344068527,76.69920940097705L220.6572367730141,79.46330857455278L220.9826450368881,82.85984590959339L221.01776103658676,86.83488487985274L221.17227143526077,92.13974819055377L221.46724583272936,92.37008458142755L221.6662364976883,92.0771314770788L221.7926540966034,91.67555196282495L221.97525729503633,91.0101128028779L222.3076887588501,89.93414514846943L222.44815275764464,90.40469406309406L222.48560982398988,87.8328427766L222.5230668903351,87.45963109746424L222.6096863562584,87.44363297561189L222.79697168798447,91.43547671943246L222.97021061983108,87.45251805687408L223.15047275161743,90.14479851341179L223.5905932811737,89.94328950515565L223.66316634721755,92.81067546095711L223.74042154655456,89.41309403513897L223.89024981193543,92.38946777749722L223.98155141115188,92.85626403512363L224.00730314426423,94.92314450782294L224.1547903429985,91.64324632775852L224.7072820715904,91.2967242460781L224.77517300434113,93.03100669856278L224.9320244696617,89.20233252140275L225.80056019554138,83.68509093093873L226.16342552576066,83.73320958349481L226.24536285839082,89.04713018699L226.26175032491682,92.20511904056114L226.56843005561828,91.79617620702115L226.59886392202378,92.71937832370534L226.70655298776626,89.54234648859355L226.76742072057723,89.12213854441508L226.89383831949235,89.15314605128862L227.1021932510376,84.46687389057124L228.00350390996934,88.82749246967016L228.13694470882416,94.46920938108308L228.3850977733612,93.82464332083498L228.53726710538865,96.15537843162117L228.64261510448455,94.13847498280433L228.9961161681175,93.3352178129686L229.02420896787643,92.07347090136851L229.49242229719164,93.81780840771859L229.64225056257246,92.90669823444868L229.71482362861633,92.78469089328446L229.74525749502183,93.04635591519647L230.3000902902603,96.44096795661827L230.45694175558089,98.3535979405081L231.0024102842331,97.96724943491074L231.21778841571808,97.86279459434684L231.3325006814003,97.42321020265318L231.58299481258393,100.25828012840856L232.1378276078224,96.38528598449368L232.37895747241976,95.82193989212237L232.5779481373787,96.65995001726742L232.61540520372392,95.40277569179608L233.5096926627159,93.46932891726897L233.54949079570773,92.0653065876948L233.80934919347763,93.69598613620846L233.85382945976258,94.03105248473742L234.04345585813522,89.02633929938648L234.17455559034346,89.56268767708839L234.1886019902229,92.11714070348705L234.66149745283127,95.3768359346592L234.823031051445,91.5466985439289L234.8534649178505,94.08617655987157L235.16014464855192,94.62262077450664L236.26044597244262,95.4302733817029L236.62097023601532,95.82843767618456L236.66779156894685,95.79850105115625L237.15005129814148,95.68283627503267L237.3794758295059,95.02764697793843L237.489505961895,96.08992006835565L237.5573968946457,99.11836223919606L237.9085568916321,96.6278268930184L237.9553782245636,95.59020887038933L237.96240142450333,96.03913979024541L238.10754755659102,97.03342067667174L238.16139208946228,100.6566505807519L238.16841528940202,99.98917550996163L238.63896968536378,99.37122393280532L238.8098675505638,95.49458046612322L239.00885821552276,94.15022068729738L239.06972594833374,90.26322634524846L239.3647003458023,89.62423849812305L239.51218754453657,91.15353360229854L240.3011270044327,90.8500891403454L240.49543553609848,93.3160520688317L240.63355846824646,98.54308271581958L240.63824060153962,96.43730183199767L240.71081366758344,99.1376963081974L240.87702939949037,98.36629633733746L241.42483899478913,97.24419174935069L241.651922459507,94.15553254440026L242.23250698785782,92.95553652581592L242.70540245046618,96.18098876042986L243.23916564588546,94.00494441117856L243.6137363093376,94.65260374207274L244.36053656959535,97.54269501671253L244.44481496887207,96.2318321856791L244.46354350204467,94.61682322029802L244.72574296646118,95.2109150833912L244.81470349903105,93.62736225775338L245.306327494812,98.44492289892389L245.55682162599564,99.64051466082358L245.88222988986968,95.48451256589313L245.94543868932723,91.3224508774233L246.2427541534424,88.81061327937074L246.56348028402329,94.20150485333127L246.69458001623155,91.37573073450625L246.76949414892198,89.02011272739027L246.93570988082885,89.93725167085454L247.02232934675217,94.42373078190883L247.8253152065277,100.72057223828755L248.03367013807295,101.2697423053116L248.08751467094422,98.41868852313088L248.22797866973877,97.48190376446986L248.24670720291138,98.39441780247421L248.44335680122376,95.85741300454029L248.8577255976677,100.73818694082826L249.04501092939378,98.33076990780837L249.24166052770616,100.18708891564539L249.3353031935692,95.42440647228398L249.40553519296645,98.56703934359618L249.55770452499388,95.73444934592636L249.6326186576843,91.46209462329186L250.53627038326263,92.11032213935663L250.85933758049012,91.91032764578443L251.02321224575041,89.0053765869147L251.18708691101074,94.48968487046616L251.2760474435806,97.45931921357918L251.46801490859986,96.1281883874858L251.57102184104917,93.51516797829241L251.71148583984376,94.80088578593936L251.8894069049835,97.26041019554663L252.02284770383832,93.933283069722L252.23120263538362,95.90020026214167L252.350597034359,96.8597540130501L252.3576202342987,89.9517403701126L252.5449055660248,91.67395355698628L252.80242289714815,95.96850356103658L252.8258335636139,92.65615875305595L253.16060609407424,92.89869220951803L253.3315039592743,92.16642634988371L253.78098875541687,91.39425422998578L253.9448634206772,93.16757232959775L254.0595756863594,93.94843189358001L254.10171488599778,94.89639344712498L254.25154315137863,95.81909136249865L254.60036208171843,97.46259742675232L255.15285381031038,95.05521601894539L255.3050231423378,97.16898594037436L255.8083524713516,88.88390466660191L256.36084419994353,90.75307198467983L256.41000659952164,88.31522708559675L256.6089972644806,92.71767993948461L256.61367939777375,94.54962289320008L257.24576739234925,94.72560954928298L257.4728508570671,88.55421649121388L257.51499005670547,91.53965323759742" fill="none"></path></g></g></g></g><g opacity="0.2"><g><g><g><path style="fill: none;" stroke="rgb(255, 112, 67)" stroke-width="2px" d="M23.508991264915466,8.552932047784964L23.630726730537415,9.247050163986302L23.801624595737454,10.087371854286715L23.946770727825164,9.574890968055314L23.958476061058047,9.944206460052925L24.049777660274504,10.050525091501811L24.136397126197817,9.674055745751645L24.15512565937042,10.278989151837408L24.520332056236267,10.367696938369448L24.665478188323977,11.4758907080722L24.76614405412674,11.01839734463536L24.78253152065277,10.964734609572758L24.894902719688414,9.384457147545191L24.925336586093902,10.57178490443701L25.08218805141449,10.576236191216395L25.302248316192628,11.405800605133294L25.784508045387266,12.788313754533903L25.906243511009215,11.628541582466852L26.531308305644988,13.797148444339626L26.540672572231294,12.521660479844996L26.653043771266937,12.002732293318047L26.669431237792967,13.459203925834856L26.772438170242307,12.243949643553321L27.36941016511917,13.846907471552043L27.470076030921938,14.818815911308974L27.47709923086166,12.305084181424178L27.804848561382293,10.767517875874972L27.89849122724533,13.990443806350811L28.177078158187868,13.616429733863868L28.317542156982423,14.463975933262589L28.558672021579742,14.954747964526263L28.706159220314028,14.532140678031027L28.811507219409943,12.345181090111481L29.003474684429168,14.948583285613552L29.113504816818235,11.74252631892469L29.22821708250046,17.996460597106392L29.230558149147036,15.180403474870133L29.258650948905945,17.232102235356564L29.338247214889527,17.59402541180981L29.696430411815644,12.608001312295926L29.82518907737732,11.915667243573637L30.522826938056944,16.30710011322924L30.972311734199526,19.504360489377888L31.009768800544737,21.269507663441374L31.14789173269272,18.472377341935697L31.880645593070984,19.637757782068064L31.885327726364135,18.726674763044542L32.00238105869293,17.034647039867025L32.16859679059982,18.493459130710306L32.33949465579987,20.724092554193447L32.355882122325895,20.530611721899817L32.606376253509524,17.235820472924246L32.671926119613644,17.96702381370224L32.85921145133972,17.987981955621848L33.23378211479187,20.641408135882727L33.51705117902756,21.895169581573242L33.71135971069336,18.598585453200428L33.92673784217834,23.322063119994482L33.96653597517014,20.38105201887973L34.35749410514832,22.424625414610148L34.61969356956482,19.77820294549224L35.048108765888216,16.25405561244156L35.364152763175966,23.732711989229216L35.42970262928009,24.26689289851012L35.92366769170761,23.965185740433554L35.956442624759674,25.340191759353047L36.4012452876091,28.124506967531545L36.70558395166397,13.476814770751702L36.808590884113315,12.796969034382698L37.00758154907227,21.569236471838224L37.13868128128052,26.95237010996621L37.15506874780655,21.76602044154356L37.23934714708328,23.737922820974916L37.43365567874908,20.995912501036997L37.92527967453003,31.30370607093451L37.96975994081497,24.561640505034802L38.13363460607529,26.681283212334336L38.80083860034943,23.897886523649987L38.86872953310013,21.610896630049268L39.093471931171415,25.42804284981841L39.12156473093033,27.346785913525338L39.456337261390686,25.511204191712636L39.71853672580719,23.027898420071864L40.16099832201004,25.073291190954166L40.69242045078278,27.36603066331162L40.8750236492157,25.281556654336498L40.88204684915542,26.564551749312244L40.99441804819107,29.70101320048218L41.6428935092926,34.929941546610024L41.66630417575836,27.562408364779145L41.748241508388524,21.06184277049755L42.11813003854752,27.14593926144198L42.29371003704071,27.4951179799138L42.56059163475037,29.927481247301614L42.65657536725998,33.0601979651492L42.98900683107376,25.37688837952834L43.021781764125826,19.984048463284182L43.305050828361516,32.12193030186586L43.32846149482727,31.919617551359124L43.54618069295883,26.238450833131196L44.19465615406036,32.74854606716471L44.31170948638916,32.41084001045169L44.32809695291519,28.82414503261606L44.463878818416596,32.16037564184734L45.08894361305237,32.00669143302176L45.57588547554016,30.996514291647628L45.777217207145696,32.39349412308121L45.80765107355118,28.168277954195503L46.114330804252624,40.30313044483012L46.45378546800613,34.21486528848908L46.60361373338699,27.584664798676073L47.46746732597351,25.725166242342397L47.48385479249954,20.221176635386797L47.75541852350236,37.28869077569192L47.94270385522842,39.136416385047596L48.04336972103119,31.91488364319693L48.24236038599014,33.465865632511765L48.59352038297653,25.232645491272535L48.647364915847774,23.875276813024527L48.93297504673004,41.33367398960357L48.93999824666977,37.730569307728075L49.0828033121109,36.47617196392622L49.10153184528351,38.49218094291365L49.209220911026,37.94779033617846L49.401188376045226,32.76230619574068L50.143306503009796,30.923730453653747L50.26738303527832,38.955370893597944L50.40784703407287,33.33613358588002L50.487443300056455,29.811659471855478L50.76603023099899,43.92865936704857L50.939269162845605,40.72738930003118L51.43089315862655,40.91803508657844L51.44259849185944,36.14972660293486L51.88740115470886,31.434038688004733L52.182375552177426,30.05626827868457L53.07432194452286,31.116601883590704L53.556581673717496,40.84699996839075L53.70172780580521,46.976183401812904L53.92412913722992,39.87758212956993L53.987337936687474,22.487173059395076L54.09970913572311,35.43782100345243L54.78564166316986,30.637558639713973L55.1227552602768,40.685420024682685L55.24214965925216,39.857895783873005L55.295994192123416,26.316445502870778L55.740796854972835,37.61665522661593L55.91403578681946,47.77952585055522L56.372884849548335,40.37539319964941L56.702975246715546,39.139004137084015L56.873873111915586,35.684752604771546L56.97688004436493,34.38380222006862L57.2320563088417,29.33667891035674L57.67920003833771,31.286492662337253L57.74943203773499,29.257209310275556L57.793912304019926,47.28681079728466L58.00929043550491,38.02007958675239L58.07952243490219,36.78848625577669L58.22935070028305,30.31256171330955L58.27383096656799,35.60216533756116L59.28517175788879,45.056371676002186L59.63399068822861,47.42873972296866L59.63867282152176,34.05787794225182L59.71358695421218,49.933948651777825L60.259055482864376,46.071962783240934L60.3152410823822,41.56439902100172L61.13929654197693,35.9379813637766L61.45065840597153,56.599105873878145L61.61921520452499,32.79238770917436L62.49945626363755,47.18058048501791L62.761655728054045,48.989578133009275L62.87402692708969,51.495617262130466L62.972351726245876,56.67675609880742L63.36330985622406,38.17157347986114L63.435882922267915,27.774904316985527L63.892390918350216,47.1471251788268L63.95091758451461,50.60659637480319L64.00242105073929,59.15243992503032L64.47999864664078,30.393594562914416L64.51277357969283,41.39521479571221L64.58066451244355,54.928106947965944L64.59939304561614,49.12218938497847L65.70203543615341,62.03589341515051L66.60568716173172,49.19180256433384L67.79260795154572,36.19275570846892L68.16249648170471,51.65523651999523L68.28657301397324,55.976570454793716L68.52536181192399,34.81250353013087L69.13403914003372,51.680054210173935L69.3892154045105,56.16740171162344L69.42199033756256,46.74554668959689L69.60225246934891,48.80369275037884L69.87147513370515,48.70322968070522L70.08685326519013,52.660785736225705L70.22029406404495,48.257809549465634L70.313936729908,51.53168681611264L70.35607592954636,50.35282886878714L70.37714552936554,46.62243858162495L70.5550665945053,46.81650232052067L70.80321965904236,55.493226066747226L70.82194819221496,36.2934572399343L70.98816392412185,50.53447493067529L71.26206872177124,51.73685227620217L71.49383431978225,45.31721354850691L71.49617538642883,51.09801313609643L71.5476788526535,45.290832608804465L71.58513591899873,44.29483952808053L72.05569031496049,64.43655892807163L72.06271351490021,64.61868191354328L72.17742578058244,53.876269648380784L72.23361138010024,54.484082259804026L72.76035137557983,58.7389648419674L72.91017964096069,39.21844724141056L73.06234897298813,72.86577699829523L73.11619350585937,60.11328197126626L73.31986630411149,61.20730934415525L73.48842310266495,62.87585299680421L73.79744390001296,44.32897489197404L74.55829056015016,42.88318104857683L74.92817909030914,61.378622061734106L75.48769401884078,56.24857587191974L75.59772415122985,59.04976887580342L75.68668468379975,38.9686629305086L75.75223454990387,57.159915016571446L76.01911614761353,50.272988328141025L76.88062867355347,47.11421745156491L77.5782665342331,56.96152363775133L77.60167720069886,49.083470255532376L77.70468413314819,38.50894392368207L77.76555186595917,59.584082263857525L77.87089986505508,70.2338742027196L77.92474439792633,52.984245908861055L78.10032439641954,60.55861378332372L78.25483479509354,57.415793351040406L78.51937532615662,52.459497488231705L78.82371399021149,55.34510596639588L78.84946572332382,48.22193429768416L78.89628705625533,48.272214408071136L79.45111985149383,43.65007417085383L79.78121024866104,55.755445718493164L79.9404027806282,55.79763579179699L80.25644677791595,54.59967440537663L80.26112891120911,47.71460241977098L80.35008944377898,51.42395507774965L80.40393397665024,47.66157558281972L81.05006837110518,54.786381156400864L81.27949290246964,67.44312935808198L81.29822143564223,69.32921198823698L81.70556703214645,53.255385798002195L81.78282223148346,61.93573063069613L81.95606116333008,53.345824640504006L82.04736276254653,51.71825225644545L82.24869449415208,57.33810779843827L82.52962249174118,52.538543156238646L82.71456675682067,56.500073574955024L82.85268968896865,67.26422119083988L83.54330434970856,71.23476899805179L83.83827874717713,54.70763577361316L83.92021607980729,61.03042368618395L84.0934550116539,59.70745532937586L84.4329096754074,47.55337575279145L84.49143634157181,48.70213452284679L84.64126460695267,71.4238956946664L84.67403954000473,58.28935838149482L84.9877424706459,69.80589710995082L85.2218491353035,74.34650991014333L85.37870060062409,68.0556670457492L86.1442293940544,60.327729777397735L86.14657046070099,74.33804893249521L86.21914352674484,65.42261610080588L86.95189738712311,57.38721326370292L86.97999018688202,59.997672161857224L86.98935445346832,72.89359754066639L86.99169552011489,78.6170691471349L87.26091818447112,56.31752665740915L87.80170457983017,60.45900740971676L88.03112911119462,65.26222846605658L88.07092724418641,75.16563499673241L88.11306644382476,61.54863648733563L88.55084590673447,57.390648879887806L88.76388297157288,70.78634601461977L88.84347923755645,59.59781589667885L88.88561843719482,62.49410216396262L89.71201496343613,46.695469713328805L89.98591976108551,71.8985848028641L90.016353627491,73.32985014080081L90.23173175897598,61.030017417946155L90.29962269172668,60.056819518130126L90.39092429094315,72.19817230056952L91.2313672170639,67.83742151478612L91.29223494987488,36.42716364976192L91.38821868238449,64.6778999251619L91.44674534854889,61.418162559574L91.77215361242294,55.6517766625082L91.91729974451064,61.398184760576044L92.40424160699845,60.58757364314437L92.44169867334367,59.327515039767945L92.61493760519028,75.61426111428334L92.73199093751907,64.53019492496657L93.0503760014534,69.85435784518592L93.24234346647263,65.81637834241724L93.65437119626998,64.06043402713176L93.71523892908097,58.59874047649855L93.85804399452209,71.59534089101845L94.05001145954132,52.161111131403246L94.21154505815505,101.49463860411032L94.30752879066468,66.76015712266553L94.40819465646744,79.68597854462593L94.71721545381546,51.2733973679715L94.7429671869278,68.37416368034881L95.07539865074158,67.58690415467248L95.29545891551972,66.60777120581729L95.32823384857177,60.922356334928864L96.93420556812288,80.84769373869985L97.02082503404617,67.9077059199257L97.61311489562988,77.81416829430323L97.87531436004639,71.65179451223638L98.02748369207382,81.62820567886139L98.04387115859984,81.39782509227355L98.1749708908081,65.7940512531746L98.19604049062728,71.91991388534865L98.33416342277526,58.986223224260414L98.36459728918076,91.32331583444113L98.73214475269317,71.82422005151007L98.80939995203019,67.9172355596776L99.3431631474495,56.7872522275711L99.59365727863312,73.70843031500391L99.86287994298935,80.30736581434265L99.97759220867157,58.59503107084906L100.10869194087982,68.5875516562947L100.41771273822785,38.42128713541737L100.43644127140044,59.61316577053316L100.74546206874847,70.7429812961936L101.02170793304442,58.53666975529711L101.08491673250198,72.46329765340757L101.08959886579514,54.0142330427871L101.30029486398696,55.69896560152061L101.46416952924729,69.59288890648808L101.54376579523087,67.07034292222664L101.609315661335,56.934082867863324L102.37016232147216,65.16000784465855L102.39123192129135,63.64763016985303L102.41932472105026,62.160873889783616L102.46380498733521,54.6395946756997L102.503603120327,71.30599841844018L102.6300207192421,72.50388914951482L102.658113519001,68.15696914765307L102.7166401851654,67.97890001264123L102.80325965108871,79.42041159587723L103.04673058233261,77.15946702908683L103.09121084861755,70.01749220649947L103.33702284650803,87.21809452235728L103.8543985754013,72.70759734309921L103.9035609749794,61.12132178843284L104.03231964054108,80.51405036436483L104.23599243879318,63.98512426052895L104.4092313706398,77.60729827399858L104.83998763360977,59.78731353385841L106.12757428922654,76.89473028065015L106.17673668880462,84.09498693152553L106.19546522197723,71.11296801397539L106.23058122167586,66.61603788126472L106.47873428621293,75.14660221298324L106.68943028440475,64.43030592997678L107.1529614804268,63.98298693632138L107.16934894695282,69.42294513623226L107.33556467885971,63.61221417781864L107.57903561010362,94.36247162669858L107.6188337430954,80.58295699026318L107.77568520841598,72.38684856935527L108.26496813755035,85.76534112740818L108.33285907030105,46.16285205357161L109.16159666318893,75.83516505262855L109.23182866258621,65.69165399341232L109.27630892887116,53.25557126828467L109.4846638604164,63.611127851878436L109.60639932603836,59.710882113642526L109.67897239208222,80.49346316301018L109.81241319093705,71.3684047525337L110.42577265233994,83.8746129082731L110.50302785167693,84.02418144321138L111.09531771326066,65.29888092664082L111.17491397924422,79.20986749759594L111.81870730705262,51.26808938512545L112.08090677146912,82.88036854735533L112.82068383178711,86.53646473850922L112.94944249734878,60.91328595492405L113.39892729349137,56.250819179145864L113.43638435983658,82.89073721933748L113.46213609294891,88.9185788072238L113.87416382274627,106.46548946813417L114.00994568824768,79.28753538636164L114.05676702117921,73.77762839420329L114.3376950187683,57.6985207168771L114.66778541593551,64.41411702389223L114.72397101545333,100.52498671945685L115.04235607938766,66.41896245825835L115.26709847745896,75.83709041079901L115.40522140960694,68.9309719640916L115.43097314271927,82.41649853896865L116.35569446811677,83.23417519097079L116.42124433422089,81.21242546514486L116.54063873319626,83.33843598547604L116.76772219791413,57.734987707178846L116.84029526395797,68.29875676264565L116.85200059719085,70.23052690571684L117.1001536617279,81.41086100355604L117.74628805618286,57.50538432939375L118.22386565208436,78.91673613210425L118.568002449131,49.93307429187473L118.60545951547623,76.85209861143568L118.61482378206253,49.520173283495666L118.69207898139953,76.9583642513753L118.73890031433106,83.2339190653426L118.9097981795311,83.38835398721629L119.48804164123536,65.82483048814714L119.69405550613403,76.0996810031099L119.96561923713683,60.335996452845166L120.02882803659439,57.45379709511123L120.19270270185471,80.451299585461L120.35189523382186,58.69945083988215L120.5438626988411,82.91378852587358L120.65623389787673,88.30276006194042L120.69369096422194,85.77617789105561L121.43346802453995,59.86787829179799L121.76589948835372,90.2326269266367L122.04916855258942,67.24732573129829L122.30668588371277,79.56394793067598L122.52908721513748,62.07430342745914L122.78894561290741,85.84138394322268L122.83108481254577,66.18600295155228L123.32270880832672,69.43394087440753L123.99225386924743,67.1644028511958L124.03205200223923,68.26578721195627L124.12335360145569,97.13873654142589L124.72734879627228,77.08360085163658L125.2892047914505,80.2202036134979L125.37114212408065,90.0263398129341L125.49755972299576,55.638864398080685L125.57247385568618,84.74462750760586L125.74103065423965,88.02150762644531L125.80423945369719,77.55327343028925L125.81360372028351,79.17351532223095L125.96109091901779,55.75527791204712L126.37077758216857,80.26431904497217L126.40121144857407,74.79212434358361L126.58849678030015,85.27522265809226L126.59786104688644,76.62049038821623L126.68213944616318,59.047013317320946L126.88581224441528,78.09101360261002L126.90219971094132,78.71965187717967L127.00520664339065,62.3415307768319L127.12928317565918,81.93489403881013L127.78712290334701,101.57481034168944L127.92758690214157,85.96836043137193L128.29513436565398,72.06870521148419L128.32790929870606,95.68595665072215L128.67438716239928,72.12002748822032L129.00213649291993,80.90827186572328L129.48439622211455,64.44717489376374L129.50546582193374,74.15968834418233L129.62954235420227,90.62472876762399L129.94558635149002,71.04224201292516L130.02986475076676,81.86091789185748L130.29908741512298,77.00620675233547L130.72282047815324,70.93575557503021L131.17698740758894,69.97551409923277L131.3104282064438,59.19585763496576L131.4953724715233,87.2649478484776L131.5796508708,65.64319325817722L131.8441914018631,76.26677206378291L131.8816484682083,101.24330429156198L132.06659273328782,83.0922374333686L132.26792446489333,87.34237727545155L133.90433005084992,93.72106681435194L134.00499591665266,61.059780982324185L134.14545991544722,83.62109269596702L134.19228124837875,79.67134405614688L134.46384497938158,67.45642139499263L134.5855804450035,85.71337412064248L134.72604444379806,87.06838467672759L134.8103228430748,84.66278212152537L134.93439937534333,85.38205354079751L134.97419750833512,101.81884507383468L135.00697244138718,87.77663386206983L135.063158040905,98.49304054405394L135.09125084066392,77.54883097542807L135.18255243988037,98.88837928306634L135.21532737293242,64.50707296308475L135.50561963710786,56.37110990520783L135.65778896913528,75.77806670138108L135.71163350200652,91.78854154227352L135.95978656654358,55.814345781056105L136.20559856443404,67.88334748949406L136.31328763017655,74.81446909666266L137.00390229091644,102.5031553448604L137.7577257511139,91.83600868670965L138.08079294834135,59.16125417940697L138.75970227584838,75.44362845440689L138.8861198747635,65.55551880607611L138.9446465409279,95.84228601905252L139.23962093839646,85.04193637041232L139.42924733676912,91.57903519438227L139.57205240221023,100.60000503275865L139.61653266849518,63.49952773333813L140.4780451944351,83.8893533797707L140.5950985267639,106.92559266340297L140.8128177248955,69.81010110302024L140.8502747912407,87.92604342248028L140.92050679063797,76.17655401923643L141.091404655838,81.36575639724191L141.35828625354767,105.10173972897724L141.93652971525194,67.78424453522524L141.9412118485451,85.1023555229079L142.38133237810135,82.84196736696492L142.75590304155352,66.95515704489183L143.11876837177275,82.9459013804963L143.33648756990434,102.44684745029299L143.46524623546603,83.04034991386682L143.60571023426056,78.38743044167695L144.56086542606351,74.95411938744768L144.67323662509918,74.13624843324486L144.69196515827178,66.37195015761019L145.038443021965,88.0620637948797L145.1484731543541,95.87420898743366L145.30298355302813,83.11307192843321L145.700964882946,72.34118755219372L145.8297235485077,91.141877322631L145.9725286139488,58.45948762203312L146.0521248799324,78.43420428053336L146.34007607746125,48.93116382594803L146.38221527709962,64.32579784176157L146.7427395406723,98.1620776568966L147.0236675382614,76.91492887760343L147.2671384695053,73.63605274524782L147.34439366884232,67.10587372919781L147.49422193422316,91.16380255959494L147.51763260068893,85.79729500750305L147.70257686576844,47.81383785281298L147.73769286546707,63.68331995135203L148.4259664595604,93.40503870089289L148.44469499273302,99.57458841650786L148.582817924881,65.15752607564069L148.61559285793305,70.46126076903322L149.13999178676607,63.98107924198736L149.15637925329207,81.0662572187186L149.1657435198784,77.8154312586077L149.17510778646468,109.31782369443061L149.5051981836319,71.19288804188544L149.5824533829689,81.98474138520469L149.60820511608122,96.11029499318714L149.99682217941285,75.16756918682107L150.03193817911148,82.99142108696644L150.0811005786896,85.59898311594685L150.11621657838822,66.37510315241225L150.39246244268418,86.37560018017643L150.91920243816375,84.88194617198262L151.29143203496935,66.8479375577852L151.342935501194,71.75904932701586L151.44594243364332,91.9898827817768L151.5114922997475,78.47589093449903L151.71750616464615,70.97804279943438L152.021844828701,70.75584940103005L152.12719282779693,47.04927635694423L152.62115789022445,94.9300548506613L152.8693109547615,97.71467917597728L152.87633415470123,88.9722459582455L152.9372018875122,96.30714961823818L153.00977495355608,84.645771847047L153.42882588329317,96.10685496104315L153.440531216526,62.00098967437248L153.45925974969862,70.05697088091188L153.83851254644395,55.70728526847732L153.96258907871248,95.24142854322207L154.43080240802763,90.45857830624068L154.72343573884964,84.65048809137278L155.2220829345703,77.00916544493685L155.29933813390733,80.0448723731321L155.3976629330635,79.09902692402194L155.52173946533202,69.70110640035278L155.6973194638252,77.59086207420405L155.73009439687726,76.77630308933114L155.74648186340332,81.69932911623123L155.9337671951294,75.15517800556813L156.3528181248665,97.56111419804759L156.43007332420348,99.05221136591872L156.84912425394057,75.79311629001614L157.55144424791337,84.76239732705055L157.5654906477928,62.80015462580002L157.9845415775299,75.8304046487117L158.63067597198486,72.7182133087913L159.883146627903,83.86385563188958L160.00254102687836,85.97573508307984L160.2226012916565,85.34508313115761L160.4941650226593,62.36398151292951L160.622923688221,82.09197853614774L160.69315568761826,76.92931607237252L160.8757588860512,56.04485884641714L160.93896768550871,78.21269093983143L160.97876581850053,75.79221543435841L161.03729248466493,97.88564744874583L161.56637354679108,74.8402494659266L161.6038306131363,79.28895732519395L161.61787701301574,62.07533676189007L162.15164020843508,97.08823121712447L162.2616703408241,92.55471044725705L162.5449394050598,97.97005850706721L162.9944242012024,81.8181360800334L163.03188126754762,106.53738128238852L163.10211326694488,97.52907199877058L163.25896473226547,82.35196371258577L163.29173966531752,88.8342295723299L164.07599699192045,94.43139150047425L164.29371619005204,82.75461086391948L164.30776258993149,104.45362707474777L164.35926605615617,88.58186634130975L164.569962054348,98.21206189802345L164.9866719174385,76.3821434114002L165.05222178354262,56.94778117301179L165.2699409816742,78.89285462525612L165.4455209801674,74.61285406769478L166.50134203777313,80.81128857182559L166.69565056943893,88.25487340138916L166.86186630134583,78.67532447966829L167.0889497660637,91.39628072675839L167.1170425658226,71.67424524833399L167.24111909809113,101.6900977860837L167.4658614961624,87.66481294557418L167.80765722656253,63.21131574629112L168.88220681734086,86.56355223166871L169.06949214906695,90.37977551598459L169.76478894309997,97.25583452905383L169.83736200914382,65.20321358855688L169.85609054231642,77.43704538660529L170.60289080257414,84.2734799986116L170.95405079956055,88.32494584049164L171.4128998622894,82.81912802646593L171.7359670595169,73.73511153992558L171.89984172477722,75.55370065109634L171.90218279142383,87.96519531591879L172.09883238973617,91.62510247978162L172.4687209198952,90.7234166217368L172.72623825101851,86.28099267227806L172.9228878493309,88.3789971799556L173.21083904685975,93.43117676284446L173.4683563779831,67.07354007661978L173.6439363764763,88.45881122484708L173.76567184209824,80.01050737936505L174.43521690301893,68.09382093242965L174.45862756948472,73.79931075341636L174.46330970277788,84.59611880285314L174.8472446328163,73.20656539446462L175.32014009542468,89.8862876698704L175.55424676008224,72.83287810295155L175.57999849319458,82.1657603808997L175.70641609210966,88.8586939857801L176.1535598216057,81.70170490223053L176.22145075435637,70.46673655832531L176.26358995399474,59.58798597170771L176.45789848566056,114.19715380597154L176.63347848415376,72.76390082170751L176.7060515501976,78.8420092721035L176.8137406159401,70.96559862667216L176.9869795477867,78.52131348986883L177.0853043469429,83.59415534541716L177.2398147456169,97.91986229990324L177.70334594163896,92.41572696629713L177.79932967414857,68.26676755487792L178.03577740545273,85.79952065089275L178.61870300045015,89.19835631237731L179.17119472904207,77.04706320598912L179.43573526010513,97.0459395767612L179.76348459062575,102.23383924683026L180.14039632072448,79.37930784851362L180.2059461868286,70.92090912051405L180.3112941859245,79.18015692472717L181.29220111083984,102.93387916419344L181.37179737682342,121.3869887933555L181.46309897603987,71.70918431678489L183.2188989609718,81.74839925382302L183.22124002761842,92.38686425757683L183.2610381606102,74.36236320333579L183.48812162532806,95.97800610623273L183.60751602430344,74.46260547505409L183.80182455596923,63.48617387299997L183.98442775440216,82.79907074020406L184.7780493475914,93.28009355393263L184.91617227973938,62.51444207160732L185.34458747606277,79.95706544225779L185.34692854270932,76.00623047649744L185.37736240911482,111.70118747957233L185.70745280628205,87.93374485516206L185.82450613861084,78.4310512857313L186.00945040369032,95.05890370547174L186.05861280326843,75.88610755688153L186.49405119953158,85.1458880477801L186.5572599989891,102.04269445690396L186.6274919983864,79.13494633539449L186.81243626346588,67.57196054905597L187.08634106111526,101.3245579391222L188.357540250206,90.44793584479393L188.3669045167923,90.45372958314171L188.43947758283616,76.86714820007074L188.52375598211287,78.32707311260886L188.64315038108825,95.27958242990252L188.82107144622805,77.01191217150112L189.42740770769117,87.70769190849863L189.61703410606387,77.87325382714864L190.26316850051882,91.07239662204881L190.36149329967498,86.05933802088474L190.62837489738465,66.41782314080886L190.9233492948532,79.06622517977861L190.98421702766416,91.92380236970664L191.255780758667,89.59346100555706L191.6163050222397,96.03648223672144L191.74740475444793,128.13329367999748L191.8667991534233,85.94867408567501L191.91830261964796,79.73783073645484L191.995557818985,92.65250186167123L192.0540844851494,84.32054529076903L192.42865514860154,108.50331770106698L192.61125834703446,61.353504086336144L192.66042074661254,107.19095647803277L192.66276181325912,106.9025016132349L192.66744394655228,100.64545849984219L192.90623274450303,74.8968267339995L192.91325594444274,81.35794898154155L193.0068986103058,67.92232274456832L193.27378020801544,77.61794956736354L193.66005620470045,95.5927843295334L194.01121620168686,91.87655160726673L194.18679620018005,79.25366498001453L194.3296012656212,76.3109758144393L194.72758259553908,82.33476796782493L195.05299085941314,83.45903582867545L196.0596495174408,75.23669661067474L196.1556332499504,94.38837564281751L196.1673385831833,93.66388897584055L196.27736871557238,80.02299571171834L196.4178327143669,99.80224435632698L196.47167724723818,110.21772992095549L196.67535004549026,93.88616627746791L197.08737777528762,73.48910729001882L197.10376524181365,84.86362877360871L198.6746209616661,96.01340001847159L198.75889936094282,79.67705830723072L199.3184142894745,104.13883101387944L199.39098735551835,109.7005151265619L200.08862521619795,75.72064156915972L200.13076441583632,100.49335962033587L200.3180497475624,71.97736551332464L200.4631958796501,84.38291629718971L200.6223884116173,84.7899440799571L201.16317480697631,113.13011235918259L201.16785694026944,75.9780919850706L201.46283133773804,90.43032058391798L201.5634972035408,94.03837555595189L201.84208413448334,84.22182210898337L202.34073133020402,80.53860309699716L202.4601257291794,90.25792154039891L202.7972393262863,77.75786481569493L202.9072694586754,95.66272428986267L202.9821835913658,98.22773855285163L203.18117425632477,96.44157141344105L203.45273798732757,102.15139770627039L203.46912545385362,69.03724643594943L203.49487718696597,84.54138740568676L203.84369611730574,82.5703682180767L204.13632944812775,82.87259645932784L204.43130384559632,73.96428215371823L204.74968890953065,64.95892273078346L204.91356357479097,88.61579857108434L205.17810410585403,103.08278972122486L205.5503337026596,79.99957346461728L205.7820993006706,108.75858221722012L206.2315840968132,83.91058531115492L206.3299088959694,86.21859517010274L206.50080676116943,80.5234916849346L206.63424756002425,83.71099279145783L207.82819154977798,65.46084064283203L207.98738408174515,85.68285984321635L208.1676462135315,84.15182032522661L208.20042114658355,79.98251903054785L208.29172274580003,74.44389947227882L208.36663687849045,77.94153338685386L208.62649527626039,60.827307231119846L209.07832113904954,104.32510058495211L209.23985473766328,71.3695529019014L209.3334974035263,85.02956285299581L209.7525483332634,83.72416118151351L209.80639286613464,70.14389461996488L209.9843139312744,91.77741332532506L210.25587766227721,62.86829287481383L210.3144043284416,77.67297241783093L210.62108405914307,113.86225188329115L210.6374715256691,94.63689698941499L210.69131605854034,92.90632677515566L210.76857125787737,98.91850937205021L210.77793552446366,105.32878185048054L210.93010485649108,82.67232388192834L211.08227418851854,105.73106689316751L211.51771258478163,88.17931634107639L211.6090141839981,79.60358557961622L211.64647125034332,76.38216990715483L211.98358484745026,105.0876572353865L212.04445258026124,100.42738960724336L212.13107204618456,92.99068042600865L212.6297192419052,106.35815075013166L212.72102084112169,98.232644683419L212.72570297441484,93.19701169930232L212.91064723949432,107.17394620355441L213.02770057182312,93.06527480723622L213.07218083810807,86.11797312590129L213.31096963605881,93.16018260035383L213.92901123075487,98.06844607596076L214.19355176181793,96.94265029325939L214.2754890944481,74.34039822273989L215.2657602859497,91.86978635791553L215.56541681671143,69.02211736005044L215.96339814662934,86.54461659901989L216.3871312096596,93.17801865918511L216.5182309418678,106.80571703749702L216.6095325410843,115.1394223282054L216.89514267196657,70.16075475183362L216.99112640447618,78.89700562681627L217.10115653686523,99.95154351775976L217.18075280284882,79.72966121210776L217.32355786828995,96.54573064088686L217.36569706792832,73.26822984742824L217.54127706642151,92.2928926477898L217.89477813005448,100.4337000128066L218.0165135956764,110.0350991001866L218.34426292619708,92.44902771391949L218.913142121315,76.14920156853056L219.50309091625212,93.31055925580861L219.88000264635087,76.02264018053732L219.99237384538648,66.5484383792619L220.44654077482224,107.20143113303347L220.52145490751266,59.525217528967445L220.54018344068527,53.76579118345353L220.6572367730141,90.31546148755704L220.9826450368881,96.19501958460509L221.01776103658676,102.44131866949161L221.17227143526077,112.96721645966079L221.46724583272936,93.27441021456252L221.6662364976883,90.92696584079334L221.7926540966034,90.09890726893175L221.97525729503633,88.39752654436661L222.3076887588501,85.70977952992978L222.44815275764464,92.25212009735918L222.48560982398988,77.7354759030248L222.5230668903351,85.9943615985912L222.6096863562584,87.38082261543303L222.79697168798447,107.10788787127977L222.97021061983108,71.81499069697742L223.15047275161743,100.71498336001545L223.5905932811737,89.15214330032745L223.66316634721755,104.06834347462095L223.74042154655456,76.07382114658203L223.89024981193543,104.07503365266734L223.98155141115188,94.68895673132191L224.00730314426423,103.0379412405389L224.1547903429985,78.76601061588006L224.7072820715904,89.9362409992835L224.77517300434113,99.83998755881052L224.9320244696617,74.17054277166619L225.80056019554138,62.02380251911683L226.16342552576066,83.92212862825939L226.24536285839082,109.91015836918545L226.26175032491682,104.60372552477884L226.56843005561828,90.19062232361534L226.59886392202378,96.34396988526845L226.70655298776626,77.06897519507574L226.76742072057723,87.47235661579326L226.89383831949235,89.27488488369355L227.1021932510376,66.068061515735L228.00350390996934,105.94775359056598L228.13694470882416,116.61920139288648L228.3850977733612,91.29400711385108L228.53726710538865,105.30609706855027L228.64261510448455,86.21989346208007L228.9961161681175,90.18154311169232L229.02420896787643,87.11971578538193L229.49242229719164,100.66626649915217L229.64225056257246,89.32958095318706L229.71482362861633,92.30567684940321L229.74525749502183,94.07368114900862L230.3000902902603,109.76858272023L230.45694175558089,105.86279053735629L231.0024102842331,96.45040333165412L231.21778841571808,97.45269357006399L231.3325006814003,95.6973542411761L231.58299481258393,111.38907190588166L232.1378276078224,81.17949124212834L232.37895747241976,93.61018208118689L232.5779481373787,99.95006858741817L232.61540520372392,90.4669730445022L233.5096926627159,85.87840734437185L233.54949079570773,86.55296276173124L233.80934919347763,100.09821076756505L233.85382945976258,95.34655928167132L234.04345585813522,69.37729295098892L234.17455559034346,91.66844953437135L234.1886019902229,102.14620012240199L234.66149745283127,108.17475267970447L234.823031051445,76.50916405914052L234.8534649178505,104.05644246482885L235.16014464855192,96.72875889797534L236.26044597244262,98.60120504640938L236.62097023601532,97.39167384712991L236.66779156894685,95.68096661693176L237.15005129814148,95.22872382887257L237.3794758295059,92.45530279180988L237.489505961895,100.26051934452568L237.5573968946457,111.008354407471L237.9085568916321,86.84971521369027L237.9553782245636,91.51640806233341L237.96240142450333,97.80169123421241L238.10754755659102,100.93707519136032L238.16139208946228,114.88184384948042L238.16841528940202,97.36859604483917L238.63896968536378,96.94507907076797L238.8098675505638,80.27445808708076L239.00885821552276,88.87211850146396L239.06972594833374,75.002465307746L239.3647003458023,87.1155029603943L239.51218754453657,97.15771191770666L240.3011270044327,89.65873329711073L240.49543553609848,102.99768977328284L240.63355846824646,119.06497151212173L240.63824060153962,88.16977786940627L240.71081366758344,109.73973767534612L240.87702939949037,95.3376964517445L241.42483899478913,92.83868752952088L241.651922459507,82.02912177422535L242.23250698785782,88.2442221080242L242.70540245046618,108.84446378992399L243.23916564588546,85.46155846855153L243.6137363093376,97.1953844648445L244.36053656959535,108.88950657281063L244.44481496887207,91.08524264708971L244.46354350204467,88.2761229966098L244.72574296646118,97.54338412223485L244.81470349903105,87.41016224773684L245.306327494812,117.35918807632737L245.55682162599564,104.33453748956278L245.88222988986968,79.16759793702819L245.94543868932723,74.98174562761814L246.2427541534424,78.94886665056339L246.56348028402329,115.3667294072551L246.69458001623155,80.28143530246909L246.76949414892198,79.77170114280194L246.93570988082885,93.53803855726346L247.02232934675217,112.03813399131903L247.8253152065277,125.44265421234584L248.03367013807295,103.4258435044159L248.08751467094422,87.2251423930913L248.22797866973877,93.80398527849532L248.24670720291138,101.97704680882623L248.44335680122376,85.89685722151894L248.8577255976677,119.90063436556477L249.04501092939378,88.87898973383373L249.24166052770616,107.475198517843L249.3353031935692,76.72559904686993L249.40553519296645,110.90535657727023L249.55770452499388,84.6133940348779L249.6326186576843,74.6883669684165L250.53627038326263,94.65533361868476L250.85933758049012,91.12512758973992L251.02321224575041,77.60022390750991L251.18708691101074,116.02167355022237L251.2760474435806,109.1184254769342L251.46801490859986,90.90202450375965L251.57102184104917,83.25616666732132L251.71148583984376,99.84875323763698L251.8894069049835,106.91676957710811L252.02284770383832,80.87062139838098L252.23120263538362,103.62253032302088L252.350597034359,100.62706603016348L252.3576202342987,62.83013015621516L252.5449055660248,98.43554917244599L252.80242289714815,112.82937229615035L252.8258335636139,79.65153406359497L253.16060609407424,93.85090484400223L253.3315039592743,89.29147122609768L253.78098875541687,88.36262280358858L253.9448634206772,100.1298113709314L254.0595756863594,97.0141711669488L254.10171488599778,98.6181932410922L254.25154315137863,99.44170337507407L254.60036208171843,103.91518034896995L255.15285381031038,85.60357571341764L255.3050231423378,105.46787573041811L255.8083524713516,56.35577769518994L256.36084419994353,98.09162544531097L256.41000659952164,78.74398381185667L256.6089972644806,110.0021869569656L256.61367939777375,101.74202946517653L257.24576739234925,95.41655223350986L257.4728508570671,64.32465852431208L257.51499005670547,103.26080144876832" fill="none"></path></g></g></g></g></g></g><g transform="translate(49, 177)" clip-path="url(#clip_1)"><clipPath id="clip_1"><rect width="280" height="22"></rect></clipPath><g><g><line x1="0" y1="0" x2="0" y2="5" style="visibility: inherit;" fill="rgb(0, 0, 0)" stroke="rgb(204, 204, 204)" stroke-width="1px"></line><line x1="23.410666465759277" y1="0" x2="23.410666465759277" y2="5" style="visibility: inherit;" fill="rgb(0, 0, 0)" stroke="rgb(204, 204, 204)" stroke-width="1px"></line><line x1="46.821332931518555" y1="0" x2="46.821332931518555" y2="5" style="visibility: inherit;" fill="rgb(0, 0, 0)" stroke="rgb(204, 204, 204)" stroke-width="1px"></line><line x1="70.23199939727783" y1="0" x2="70.23199939727783" y2="5" style="visibility: inherit;" fill="rgb(0, 0, 0)" stroke="rgb(204, 204, 204)" stroke-width="1px"></line><line x1="93.64266586303711" y1="0" x2="93.64266586303711" y2="5" style="visibility: inherit;" fill="rgb(0, 0, 0)" stroke="rgb(204, 204, 204)" stroke-width="1px"></line><line x1="117.05333232879639" y1="0" x2="117.05333232879639" y2="5" style="visibility: inherit;" fill="rgb(0, 0, 0)" stroke="rgb(204, 204, 204)" stroke-width="1px"></line><line x1="140.46399879455566" y1="0" x2="140.46399879455566" y2="5" style="visibility: inherit;" fill="rgb(0, 0, 0)" stroke="rgb(204, 204, 204)" stroke-width="1px"></line><line x1="163.87466526031494" y1="0" x2="163.87466526031494" y2="5" style="visibility: inherit;" fill="rgb(0, 0, 0)" stroke="rgb(204, 204, 204)" stroke-width="1px"></line><line x1="187.28533172607422" y1="0" x2="187.28533172607422" y2="5" style="visibility: inherit;" fill="rgb(0, 0, 0)" stroke="rgb(204, 204, 204)" stroke-width="1px"></line><line x1="210.6959981918335" y1="0" x2="210.6959981918335" y2="5" style="visibility: inherit;" fill="rgb(0, 0, 0)" stroke="rgb(204, 204, 204)" stroke-width="1px"></line><line x1="234.10666465759277" y1="0" x2="234.10666465759277" y2="5" style="visibility: inherit;" fill="rgb(0, 0, 0)" stroke="rgb(204, 204, 204)" stroke-width="1px"></line><line x1="257.51733112335205" y1="0" x2="257.51733112335205" y2="5" style="visibility: inherit;" fill="rgb(0, 0, 0)" stroke="rgb(204, 204, 204)" stroke-width="1px"></line><line x1="280.9279975891113" y1="0" x2="280.9279975891113" y2="5" style="visibility: inherit;" fill="rgb(0, 0, 0)" stroke="rgb(204, 204, 204)" stroke-width="1px"></line></g><g transform="translate(0, 8)"><text style="text-anchor: middle; visibility: hidden; font-family: &quot;Helvetica Neue&quot;, sans-serif; font-size: 12px; font-weight: 200;" x="0" y="0" dx="0em" dy="0.95em" fill="rgb(50, 49, 63)" stroke="none" stroke-width="1px">-10k</text><text style="text-anchor: middle; visibility: inherit; font-family: &quot;Helvetica Neue&quot;, sans-serif; font-size: 12px; font-weight: 200;" x="23.410666465759277" y="0" dx="0em" dy="0.95em" fill="rgb(50, 49, 63)" stroke="none" stroke-width="1px">0</text><text style="text-anchor: middle; visibility: hidden; font-family: &quot;Helvetica Neue&quot;, sans-serif; font-size: 12px; font-weight: 200;" x="46.821332931518555" y="0" dx="0em" dy="0.95em" fill="rgb(50, 49, 63)" stroke="none" stroke-width="1px">10k</text><text style="text-anchor: middle; visibility: inherit; font-family: &quot;Helvetica Neue&quot;, sans-serif; font-size: 12px; font-weight: 200;" x="70.23199939727783" y="0" dx="0em" dy="0.95em" fill="rgb(50, 49, 63)" stroke="none" stroke-width="1px">20k</text><text style="text-anchor: middle; visibility: hidden; font-family: &quot;Helvetica Neue&quot;, sans-serif; font-size: 12px; font-weight: 200;" x="93.64266586303711" y="0" dx="0em" dy="0.95em" fill="rgb(50, 49, 63)" stroke="none" stroke-width="1px">30k</text><text style="text-anchor: middle; visibility: inherit; font-family: &quot;Helvetica Neue&quot;, sans-serif; font-size: 12px; font-weight: 200;" x="117.05333232879639" y="0" dx="0em" dy="0.95em" fill="rgb(50, 49, 63)" stroke="none" stroke-width="1px">40k</text><text style="text-anchor: middle; visibility: hidden; font-family: &quot;Helvetica Neue&quot;, sans-serif; font-size: 12px; font-weight: 200;" x="140.46399879455566" y="0" dx="0em" dy="0.95em" fill="rgb(50, 49, 63)" stroke="none" stroke-width="1px">50k</text><text style="text-anchor: middle; visibility: inherit; font-family: &quot;Helvetica Neue&quot;, sans-serif; font-size: 12px; font-weight: 200;" x="163.87466526031494" y="0" dx="0em" dy="0.95em" fill="rgb(50, 49, 63)" stroke="none" stroke-width="1px">60k</text><text style="text-anchor: middle; visibility: hidden; font-family: &quot;Helvetica Neue&quot;, sans-serif; font-size: 12px; font-weight: 200;" x="187.28533172607422" y="0" dx="0em" dy="0.95em" fill="rgb(50, 49, 63)" stroke="none" stroke-width="1px">70k</text><text style="text-anchor: middle; visibility: inherit; font-family: &quot;Helvetica Neue&quot;, sans-serif; font-size: 12px; font-weight: 200;" x="210.6959981918335" y="0" dx="0em" dy="0.95em" fill="rgb(50, 49, 63)" stroke="none" stroke-width="1px">80k</text><text style="text-anchor: middle; visibility: hidden; font-family: &quot;Helvetica Neue&quot;, sans-serif; font-size: 12px; font-weight: 200;" x="234.10666465759277" y="0" dx="0em" dy="0.95em" fill="rgb(50, 49, 63)" stroke="none" stroke-width="1px">90k</text><text style="text-anchor: middle; visibility: inherit; font-family: &quot;Helvetica Neue&quot;, sans-serif; font-size: 12px; font-weight: 200;" x="257.51733112335205" y="0" dx="0em" dy="0.95em" fill="rgb(50, 49, 63)" stroke="none" stroke-width="1px">100k</text><text style="text-anchor: middle; visibility: hidden; font-family: &quot;Helvetica Neue&quot;, sans-serif; font-size: 12px; font-weight: 200;" x="280.9279975891113" y="0" dx="0em" dy="0.95em" fill="rgb(50, 49, 63)" stroke="none" stroke-width="1px">110k</text></g><line x1="0" y1="0" x2="280.9279975891113" y2="0" fill="rgb(0, 0, 0)" stroke="rgb(204, 204, 204)" stroke-width="1px"></line></g></g></g></g></svg>